<svg xmlns="http://www.w3.org/2000/svg" xmlns:xlink="http://www.w3.org/1999/xlink" width="308" zoomAndPan="magnify" viewBox="0 0 230.87999 231" height="308" preserveAspectRatio="xMidYMid meet" version="1.2"><defs/><g id="d41d0507be"><path style=" stroke:none;fill-rule:nonzero;fill:#6ba4ae;fill-opacity:1;" d="M 21.917969 92.328125 C 40.019531 84.832031 68.878906 95.457031 74.808594 94.519531 C 80.742188 93.585938 81.679688 89.21875 91.675781 89.21875 C 101.671875 89.21875 109.472656 95.78125 109.472656 95.78125 C 109.472656 95.78125 112.296875 93.246094 117.90625 92.976562 C 124.46875 92.667969 132.578125 97.34375 139.140625 102.648438 C 145.648438 107.953125 153.144531 115.125 160.011719 116.058594 C 166.878906 116.996094 173.441406 117.300781 179.679688 107.015625 C 185.921875 96.734375 181.246094 81.109375 179.050781 76.109375 C 176.859375 71.113281 170.007812 62.375 170.007812 62.375 L 170.007812 49.898438 L 180.617188 54.894531 C 180.617188 54.894531 196.222656 66.761719 201.847656 73.933594 C 207.476562 81.109375 224.015625 101.40625 216.519531 136.988281 C 209.023438 172.566406 188.4375 178.195312 188.4375 178.195312 L 212.476562 179.128906 L 220.90625 183.195312 C 220.90625 183.195312 218.40625 189.433594 212.796875 192.558594 C 206.9375 195.816406 197.191406 200.667969 180.328125 196.625 C 163.464844 192.578125 68.265625 192.882812 68.265625 192.882812 C 68.265625 192.882812 61.09375 201.925781 45.164062 202.558594 C 29.25 203.1875 21.789062 200.417969 21.160156 197.917969 C 20.53125 195.417969 26.734375 191.949219 26.734375 191.949219 L 43.90625 188.210938 L 59.203125 178.214844 L 26.125 135.460938 L 11.148438 121.722656 C 11.148438 121.722656 8.613281 113.039062 11.8125 103.257812 C 13.71875 97.308594 16.953125 94.394531 21.917969 92.328125 Z M 21.917969 92.328125 "/><path style=" stroke:none;fill-rule:nonzero;fill:#6ba4ae;fill-opacity:1;" d="M 176.875 60.8125 C 176.875 60.8125 188.597656 48.800781 189.355469 36.144531 C 190.054688 24.621094 186.476562 21.832031 184.914062 22.460938 C 183.347656 23.089844 182.179688 27.082031 179.375 29.582031 C 176.570312 32.082031 169.703125 37.382812 167.832031 40.1875 C 165.964844 42.992188 166.898438 49.230469 166.898438 49.230469 C 166.898438 49.230469 159.726562 47.039062 155.03125 48.601562 C 150.339844 50.167969 145.988281 55.164062 142.859375 56.40625 C 139.730469 57.648438 135.058594 57.96875 135.058594 59.839844 C 135.058594 61.710938 144.101562 67.011719 154.726562 67.011719 C 165.316406 67.050781 176.875 60.8125 176.875 60.8125 Z M 176.875 60.8125 "/><path style=" stroke:none;fill-rule:nonzero;fill:#6ba4ae;fill-opacity:1;" d="M 185.613281 99.824219 C 185.613281 99.824219 178.746094 97.957031 175.617188 103.257812 C 172.488281 108.5625 176.246094 114.191406 176.246094 114.191406 Z M 185.613281 99.824219 "/><path style=" stroke:none;fill-rule:nonzero;fill:#2e302f;fill-opacity:1;" d="M 134.265625 139.808594 C 135.363281 142.847656 133.582031 146.28125 130.292969 147.46875 C 127.003906 148.65625 123.445312 147.164062 122.347656 144.105469 C 121.25 141.070312 123.15625 137.941406 126.320312 136.449219 C 130.238281 134.597656 133.171875 136.773438 134.265625 139.808594 Z M 134.265625 139.808594 "/><path style=" stroke:none;fill-rule:nonzero;fill:#fee9c6;fill-opacity:1;" d="M 10.015625 114.980469 C 10.015625 114.980469 14.058594 112.570312 19.382812 112.570312 C 24.703125 112.570312 34.320312 115.105469 43.167969 118.398438 C 52.011719 121.6875 80.886719 134.597656 86.945312 137.636719 C 93.023438 140.671875 99.910156 143.046875 102.640625 143.964844 C 107.191406 145.472656 115.046875 146.5 115.046875 146.5 C 115.046875 146.5 92.015625 128.269531 69.742188 117.640625 C 47.464844 107.015625 34.808594 101.945312 20.136719 102.199219 C 10.734375 102.359375 11.648438 103.457031 11.648438 103.457031 C 11.648438 103.457031 10.015625 110.179688 10.015625 114.980469 Z M 10.015625 114.980469 "/><path style=" stroke:none;fill-rule:nonzero;fill:#a5d0d6;fill-opacity:1;" d="M 14.816406 118.917969 C 21.394531 118.917969 37.214844 122.621094 44.175781 125.246094 C 55.574219 129.542969 74.289062 138.660156 83.90625 142.203125 C 93.527344 145.742188 120.351562 154.105469 136.296875 163.46875 C 152.246094 172.835938 159.832031 183.714844 164.902344 187.761719 C 169.972656 191.804688 176.03125 196.121094 176.03125 196.121094 C 176.03125 196.121094 142.375 216.363281 100.863281 207.769531 C 59.347656 199.175781 42.914062 165.988281 39.878906 161.691406 C 36.839844 157.394531 28.75 143.207031 25.1875 139.414062 C 21.648438 135.621094 12.890625 125.285156 11.109375 121.6875 C 9.511719 118.398438 14.816406 118.917969 14.816406 118.917969 Z M 14.816406 118.917969 "/><path style=" stroke:none;fill-rule:nonzero;fill:#a5d0d6;fill-opacity:1;" d="M 159.183594 162.949219 C 157.117188 163.558594 157.332031 168.179688 168.640625 173.753906 C 179.949219 179.328125 195.683594 180.171875 205.300781 180.171875 C 214.921875 180.171875 219.648438 185.171875 220.890625 183.175781 C 222.128906 181.179688 219.039062 176.828125 207.441406 175.859375 C 197.320312 175.011719 187.863281 176.273438 176.230469 171.882812 C 162.65625 166.777344 162.042969 162.105469 159.183594 162.949219 Z M 159.183594 162.949219 "/><path style=" stroke:none;fill-rule:nonzero;fill:#a5d0d6;fill-opacity:1;" d="M 53.722656 178.304688 C 53.722656 178.304688 44.949219 185.386719 38.527344 186.734375 C 32.109375 188.082031 25.53125 188.765625 22.328125 192.308594 C 19.128906 195.851562 21.144531 198.042969 21.144531 198.042969 C 21.144531 198.042969 24.183594 194.160156 29.753906 193.496094 C 35.328125 192.832031 43.417969 191.140625 47.464844 188.945312 C 51.507812 186.753906 60.785156 181.179688 60.785156 181.179688 Z M 53.722656 178.304688 "/><path style=" stroke:none;fill-rule:nonzero;fill:#dbecf7;fill-opacity:1;" d="M 111.253906 156.710938 C 111.253906 156.710938 111.757812 162.609375 122.722656 171.902344 C 133.691406 181.179688 148.667969 184.9375 154.402344 188.640625 C 160.136719 192.34375 167.941406 200.417969 167.941406 200.417969 L 171.320312 198.566406 C 171.320312 198.566406 163.140625 189.289062 154.78125 184.34375 C 148.273438 180.496094 136.890625 176.632812 129.644531 171.902344 C 122.382812 167.175781 118.894531 164.101562 117.203125 162.066406 C 115.515625 160.035156 110.589844 154.175781 111.253906 156.710938 Z M 111.253906 156.710938 "/><path style=" stroke:none;fill-rule:nonzero;fill:#dbecf7;fill-opacity:1;" d="M 118.335938 184.21875 C 131.265625 191.699219 134.96875 190.402344 143.238281 193.945312 C 151.507812 197.488281 155.679688 204.714844 155.679688 204.714844 L 160.355469 203.058594 C 160.355469 203.058594 153.46875 192.882812 144.171875 189.503906 C 134.894531 186.125 123.390625 183.875 117.492188 178.804688 C 111.59375 173.738281 106.363281 165.214844 99.601562 157.125 C 92.84375 149.035156 89.300781 147.757812 89.824219 149.105469 C 90.324219 150.453125 95.394531 157.035156 98.9375 162.769531 C 102.480469 168.523438 108.71875 178.644531 118.335938 184.21875 Z M 118.335938 184.21875 "/><path style=" stroke:none;fill-rule:nonzero;fill:#dbecf7;fill-opacity:1;" d="M 40.902344 150.632812 C 49.335938 161.996094 55.070312 161.257812 62.835938 171.5625 C 70.601562 181.863281 74.808594 191.644531 77.847656 195.183594 C 80.886719 198.726562 84.519531 202.054688 89.75 204.085938 C 94.945312 206.097656 99.117188 207.375 99.117188 207.375 C 99.117188 207.375 87.46875 207.160156 78.027344 200.757812 C 68.570312 194.339844 66.484375 183.679688 59.511719 174.597656 C 54.441406 168.019531 50.414062 165.035156 46.097656 161.566406 C 37.484375 154.644531 33.351562 145.921875 30.90625 140.566406 C 26.679688 131.289062 18.285156 124.492188 21 125.335938 C 23.695312 126.183594 27.238281 130.136719 30.527344 134.488281 C 35.148438 140.601562 37.019531 145.402344 40.902344 150.632812 Z M 40.902344 150.632812 "/><path style=" stroke:none;fill-rule:nonzero;fill:#dbecf7;fill-opacity:1;" d="M 40.378906 130.550781 C 40.378906 130.550781 41.226562 141.859375 49.835938 150.453125 C 58.449219 159.046875 66.378906 156.871094 71.429688 163.273438 C 76.480469 169.671875 79.195312 187.402344 89.480469 195.507812 C 99.78125 203.597656 102.300781 200.058594 111.578125 203.4375 C 120.855469 206.816406 120.621094 210.035156 120.621094 210.035156 L 126.320312 209.785156 C 126.320312 209.785156 123.714844 203.3125 114.4375 200.273438 C 105.160156 197.234375 99.441406 198.726562 92.195312 191.804688 C 84.933594 184.882812 80.886719 169.027344 75.152344 161.257812 C 69.417969 153.492188 57.765625 153.492188 52.210938 147.253906 C 44.28125 138.390625 41.40625 127.636719 40.378906 130.550781 Z M 40.378906 130.550781 "/><path style=" stroke:none;fill-rule:nonzero;fill:#dbecf7;fill-opacity:1;" d="M 84.265625 159.570312 C 89.75 166.507812 90.003906 178.125 99.117188 186.394531 C 108.234375 194.664062 118.121094 194.050781 125.207031 197.089844 C 132.289062 200.128906 139.355469 208.617188 139.355469 208.617188 L 145.179688 207.355469 C 145.179688 207.355469 140.21875 200.832031 127.742188 193.925781 C 117.097656 188.046875 110.769531 191.445312 102.839844 184.199219 C 94.910156 176.9375 94.75 166.167969 87.828125 157.195312 C 80.90625 148.261719 71.789062 147.234375 66.394531 144.375 C 61.757812 141.914062 54.835938 130.785156 56.09375 135.101562 C 56.867188 137.707031 59.472656 144.214844 64.867188 148.097656 C 70.261719 151.980469 78.515625 152.324219 84.265625 159.570312 Z M 84.265625 159.570312 "/><g style="fill:#000000;fill-opacity:1;"><g transform="translate(100.960229, 153.367868)"><path style="stroke:none" d="M 14.765625 -18.5625 L 14.796875 -19.21875 C 15.972656 -20.207031 17.566406 -21.367188 19.578125 -22.703125 C 21.585938 -24.046875 23.488281 -25.210938 25.28125 -26.203125 L 29.640625 -23.015625 C 26.171875 -20.097656 23.070312 -17.257812 20.34375 -14.5 Z M 14.765625 -18.5625 "/></g></g></g></svg>